<mxfile host="app.diagrams.net" modified="2024-01-23T19:59:08.673Z" agent="Mozilla/5.0 (X11; Linux x86_64) AppleWebKit/537.36 (KHTML, like Gecko) Chrome/120.0.0.0 Safari/537.36" etag="wdEohIUcu5OQ-4aDubjD" version="22.1.22" type="github">
  <diagram name="第 1 页" id="E6p_tNHF_ZDx3uiVLW9y">
    <mxGraphModel dx="1119" dy="628" grid="1" gridSize="10" guides="1" tooltips="1" connect="1" arrows="1" fold="1" page="1" pageScale="1" pageWidth="827" pageHeight="1169" math="0" shadow="0">
      <root>
        <mxCell id="0" />
        <mxCell id="1" parent="0" />
        <mxCell id="5O-FKDdq4DlpS_XsqY3B-10" value="MongoDB" style="rounded=0;whiteSpace=wrap;html=1;fillColor=#d5e8d4;strokeColor=#82b366;" parent="1" vertex="1">
          <mxGeometry x="680" y="320" width="120" height="80" as="geometry" />
        </mxCell>
        <mxCell id="tthnnUOVbe9-8s4RVgfU-7" value="" style="group" vertex="1" connectable="0" parent="1">
          <mxGeometry x="160" y="120" width="480" height="480" as="geometry" />
        </mxCell>
        <mxCell id="tthnnUOVbe9-8s4RVgfU-4" value="Fly.IO VM" style="rounded=1;whiteSpace=wrap;html=1;labelPosition=center;verticalLabelPosition=top;align=center;verticalAlign=bottom;fontSize=30;" vertex="1" parent="tthnnUOVbe9-8s4RVgfU-7">
          <mxGeometry width="480" height="480" as="geometry" />
        </mxCell>
        <mxCell id="tthnnUOVbe9-8s4RVgfU-11" style="edgeStyle=orthogonalEdgeStyle;rounded=0;orthogonalLoop=1;jettySize=auto;html=1;exitX=0.5;exitY=1;exitDx=0;exitDy=0;entryX=0.5;entryY=0;entryDx=0;entryDy=0;" edge="1" parent="tthnnUOVbe9-8s4RVgfU-7" source="5O-FKDdq4DlpS_XsqY3B-1" target="5O-FKDdq4DlpS_XsqY3B-19">
          <mxGeometry relative="1" as="geometry" />
        </mxCell>
        <mxCell id="5O-FKDdq4DlpS_XsqY3B-1" value="Web Service" style="rounded=0;whiteSpace=wrap;html=1;fillColor=#dae8fc;strokeColor=#6c8ebf;" parent="tthnnUOVbe9-8s4RVgfU-7" vertex="1">
          <mxGeometry x="40" y="200" width="120" height="80" as="geometry" />
        </mxCell>
        <mxCell id="5O-FKDdq4DlpS_XsqY3B-2" value="Exam Service" style="rounded=0;whiteSpace=wrap;html=1;fillColor=#dae8fc;strokeColor=#6c8ebf;" parent="tthnnUOVbe9-8s4RVgfU-7" vertex="1">
          <mxGeometry x="320" y="80" width="120" height="80" as="geometry" />
        </mxCell>
        <mxCell id="tthnnUOVbe9-8s4RVgfU-1" style="edgeStyle=orthogonalEdgeStyle;rounded=0;orthogonalLoop=1;jettySize=auto;html=1;exitX=1;exitY=0.5;exitDx=0;exitDy=0;entryX=0;entryY=0.5;entryDx=0;entryDy=0;" edge="1" parent="tthnnUOVbe9-8s4RVgfU-7" source="5O-FKDdq4DlpS_XsqY3B-1" target="5O-FKDdq4DlpS_XsqY3B-2">
          <mxGeometry relative="1" as="geometry" />
        </mxCell>
        <mxCell id="5O-FKDdq4DlpS_XsqY3B-3" value="Word Service" style="rounded=0;whiteSpace=wrap;html=1;fillColor=#dae8fc;strokeColor=#6c8ebf;" parent="tthnnUOVbe9-8s4RVgfU-7" vertex="1">
          <mxGeometry x="320" y="320" width="120" height="80" as="geometry" />
        </mxCell>
        <mxCell id="tthnnUOVbe9-8s4RVgfU-2" style="edgeStyle=orthogonalEdgeStyle;rounded=0;orthogonalLoop=1;jettySize=auto;html=1;exitX=1;exitY=0.5;exitDx=0;exitDy=0;entryX=0;entryY=0.5;entryDx=0;entryDy=0;" edge="1" parent="tthnnUOVbe9-8s4RVgfU-7" source="5O-FKDdq4DlpS_XsqY3B-1" target="5O-FKDdq4DlpS_XsqY3B-3">
          <mxGeometry relative="1" as="geometry" />
        </mxCell>
        <mxCell id="5O-FKDdq4DlpS_XsqY3B-19" value="Redis" style="rounded=0;whiteSpace=wrap;html=1;fillColor=#f8cecc;strokeColor=#b85450;" parent="tthnnUOVbe9-8s4RVgfU-7" vertex="1">
          <mxGeometry x="40" y="320" width="120" height="80" as="geometry" />
        </mxCell>
        <mxCell id="tthnnUOVbe9-8s4RVgfU-8" style="edgeStyle=orthogonalEdgeStyle;rounded=0;orthogonalLoop=1;jettySize=auto;html=1;exitX=1;exitY=0.5;exitDx=0;exitDy=0;entryX=0;entryY=0.5;entryDx=0;entryDy=0;" edge="1" parent="1" source="5O-FKDdq4DlpS_XsqY3B-1" target="5O-FKDdq4DlpS_XsqY3B-10">
          <mxGeometry relative="1" as="geometry" />
        </mxCell>
        <mxCell id="tthnnUOVbe9-8s4RVgfU-9" style="edgeStyle=orthogonalEdgeStyle;rounded=0;orthogonalLoop=1;jettySize=auto;html=1;exitX=1;exitY=0.5;exitDx=0;exitDy=0;entryX=0.5;entryY=0;entryDx=0;entryDy=0;" edge="1" parent="1" source="5O-FKDdq4DlpS_XsqY3B-2" target="5O-FKDdq4DlpS_XsqY3B-10">
          <mxGeometry relative="1" as="geometry" />
        </mxCell>
        <mxCell id="tthnnUOVbe9-8s4RVgfU-10" style="edgeStyle=orthogonalEdgeStyle;rounded=0;orthogonalLoop=1;jettySize=auto;html=1;exitX=1;exitY=0.5;exitDx=0;exitDy=0;entryX=0.5;entryY=1;entryDx=0;entryDy=0;" edge="1" parent="1" source="5O-FKDdq4DlpS_XsqY3B-3" target="5O-FKDdq4DlpS_XsqY3B-10">
          <mxGeometry relative="1" as="geometry" />
        </mxCell>
        <mxCell id="tthnnUOVbe9-8s4RVgfU-14" style="edgeStyle=orthogonalEdgeStyle;rounded=0;orthogonalLoop=1;jettySize=auto;html=1;exitX=1;exitY=0.5;exitDx=0;exitDy=0;entryX=0;entryY=0.5;entryDx=0;entryDy=0;" edge="1" parent="1" source="tthnnUOVbe9-8s4RVgfU-13" target="5O-FKDdq4DlpS_XsqY3B-1">
          <mxGeometry relative="1" as="geometry" />
        </mxCell>
        <mxCell id="tthnnUOVbe9-8s4RVgfU-13" value="Request" style="rounded=0;whiteSpace=wrap;html=1;fillColor=#f5f5f5;strokeColor=#666666;fontColor=#333333;" vertex="1" parent="1">
          <mxGeometry x="40" y="320" width="80" height="80" as="geometry" />
        </mxCell>
      </root>
    </mxGraphModel>
  </diagram>
</mxfile>
